<svg xmlns="http://www.w3.org/2000/svg" width="64" height="48" viewBox="0 0 64 48" role="img" aria-label="United States flag">
  <rect width="64" height="48" fill="#ffffff"/>
  <rect y="0" width="64" height="4" fill="#c62828"/>
  <rect y="8" width="64" height="4" fill="#c62828"/>
  <rect y="16" width="64" height="4" fill="#c62828"/>
  <rect y="24" width="64" height="4" fill="#c62828"/>
  <rect y="32" width="64" height="4" fill="#c62828"/>
  <rect y="40" width="64" height="4" fill="#c62828"/>
  <rect width="28" height="22" fill="#23408e"/>
  <g fill="#ffffff">
    <circle cx="4" cy="4" r="1"/><circle cx="9" cy="4" r="1"/><circle cx="14" cy="4" r="1"/><circle cx="19" cy="4" r="1"/><circle cx="24" cy="4" r="1"/>
    <circle cx="6.5" cy="8" r="1"/><circle cx="11.5" cy="8" r="1"/><circle cx="16.5" cy="8" r="1"/><circle cx="21.5" cy="8" r="1"/>
    <circle cx="4" cy="12" r="1"/><circle cx="9" cy="12" r="1"/><circle cx="14" cy="12" r="1"/><circle cx="19" cy="12" r="1"/><circle cx="24" cy="12" r="1"/>
  </g>
</svg>
